HIERARCHY
ROOT Hips
{
	OFFSET 0.00000 0.00000 0.00000
	CHANNELS 6 Xposition Yposition Zposition Zrotation Yrotation Xrotation 
	JOINT LHipJoint
	{
		OFFSET 0 0 0
		CHANNELS 3 Zrotation Yrotation Xrotation
		JOINT LeftUpLeg
		{
			OFFSET 1.59715 -1.91394 0.36268
			CHANNELS 3 Zrotation Yrotation Xrotation
			JOINT LeftLeg
			{
				OFFSET 2.53886 -6.97546 0.00000
				CHANNELS 3 Zrotation Yrotation Xrotation
				JOINT LeftFoot
				{
					OFFSET 2.77084 -7.61284 0.00000
					CHANNELS 3 Zrotation Yrotation Xrotation
					JOINT LeftToeBase
					{
						OFFSET 0.19855 -0.54550 2.06057
						CHANNELS 3 Zrotation Yrotation Xrotation
						End Site
						{
							OFFSET 0.00000 -0.00000 1.07182
						}
					}
				}
			}
		}
	}
	JOINT RHipJoint
	{
		OFFSET 0 0 0
		CHANNELS 3 Zrotation Yrotation Xrotation
		JOINT RightUpLeg
		{
			OFFSET -1.71086 -1.91394 0.36268
			CHANNELS 3 Zrotation Yrotation Xrotation
			JOINT RightLeg
			{
				OFFSET -2.59448 -7.12828 0.00000
				CHANNELS 3 Zrotation Yrotation Xrotation
				JOINT RightFoot
				{
					OFFSET -2.80237 -7.69945 0.00000
					CHANNELS 3 Zrotation Yrotation Xrotation
					JOINT RightToeBase
					{
						OFFSET -0.18280 -0.50224 2.06614
						CHANNELS 3 Zrotation Yrotation Xrotation
						End Site
						{
							OFFSET -0.00000 -0.00000 1.07055
						}
					}
				}
			}
		}
	}
	JOINT LowerBack
	{
		OFFSET 0 0 0
		CHANNELS 3 Zrotation Yrotation Xrotation
		JOINT Spine
		{
			OFFSET 0.04838 1.91536 -0.09733
			CHANNELS 3 Zrotation Yrotation Xrotation
			JOINT Spine1
			{
				OFFSET 0.04097 1.92183 -0.02751
				CHANNELS 3 Zrotation Yrotation Xrotation
				JOINT Neck
				{
					OFFSET 0 0 0
					CHANNELS 3 Zrotation Yrotation Xrotation
					JOINT Neck1
					{
						OFFSET 0.18766 3.12816 0.13727
						CHANNELS 3 Zrotation Yrotation Xrotation
						JOINT Head
						{
							OFFSET -0.11178 3.16074 0.02732
							CHANNELS 3 Zrotation Yrotation Xrotation
							End Site
							{
								OFFSET 0.47685 1.04189 0.57898
							}
						}
					}
				}
				JOINT LeftShoulder
				{
					OFFSET 0 0 0
					CHANNELS 3 Zrotation Yrotation Xrotation
					JOINT LeftArm
					{
						OFFSET 3.49325 0.99827 -0.10681
						CHANNELS 3 Zrotation Yrotation Xrotation
						JOINT LeftForeArm
						{
							OFFSET 5.12842 -0.00000 0.00000
							CHANNELS 3 Zrotation Yrotation Xrotation
							JOINT LeftHand
							{
								OFFSET 3.47396 -0.00000 0.00000
								CHANNELS 3 Zrotation Yrotation Xrotation
								JOINT LeftFingerBase
								{
									OFFSET 0 0 0
									CHANNELS 3 Zrotation Yrotation Xrotation
									JOINT LeftHandIndex1
									{
										OFFSET 0.72861 -0.00000 0.00000
										CHANNELS 3 Zrotation Yrotation Xrotation
										End Site
										{
											OFFSET 0.58742 -0.00000 0.00000
										}
									}
								}
								JOINT LThumb
								{
									OFFSET 0 0 0
									CHANNELS 3 Zrotation Yrotation Xrotation
									End Site
									{
										OFFSET 0.59639 -0.00000 0.59639
									}
								}
							}
						}
					}
				}
				JOINT RightShoulder
				{
					OFFSET 0 0 0
					CHANNELS 3 Zrotation Yrotation Xrotation
					JOINT RightArm
					{
						OFFSET -3.23261 1.50670 -0.18692
						CHANNELS 3 Zrotation Yrotation Xrotation
						JOINT RightForeArm
						{
							OFFSET -5.48477 -0.00000 -0.00000
							CHANNELS 3 Zrotation Yrotation Xrotation
							JOINT RightHand
							{
								OFFSET -3.47856 -0.00000 0.00000
								CHANNELS 3 Zrotation Yrotation Xrotation
								JOINT RightFingerBase
								{
									OFFSET 0 0 0
									CHANNELS 3 Zrotation Yrotation Xrotation
									JOINT RightHandIndex1
									{
										OFFSET -0.70997 -0.00000 0.00000
										CHANNELS 3 Zrotation Yrotation Xrotation
										End Site
										{
											OFFSET -0.57240 -0.00000 0.00000
										}
									}
								}
								JOINT RThumb
								{
									OFFSET 0 0 0
									CHANNELS 3 Zrotation Yrotation Xrotation
									End Site
									{
										OFFSET -0.58114 -0.00000 0.58114
									}
								}
							}
						}
					}
				}
			}
		}
	}
}
MOTION
Frames: 6
Frame Time: .0083333
0.0663 18.1642 -3.8460 -4.0495 3.7811 1.5856 0.0000 0.0000 0.0000 -18.1408 -13.6569 -8.4230 2.6764 10.1518 29.4697 1.0041 1.7334 -19.6304 0.1479 2.4781 6.8289 0.0000 0.0000 0.0000 28.5742 11.2544 -10.2418 -3.1210 -10.8884 31.9045 -0.9228 -6.5933 -21.6866 -2.1924 -9.2559 26.5992 2.5206 -0.5968 0.9251 3.6019 -0.5692 -3.8988 2.3414 -0.3005 -4.5352 -4.2278 -2.7457 -10.6481 -3.0873 -2.3023 21.3335 -0.5651 -1.7370 8.4167 -0.0000 0.0000 0.0000 -28.3267 -47.3271 -4.3269 81.3828 -59.7175 -52.5444 -0.0000 -0.0000 6.2172 30.1034 23.3939 12.9633 -7.1250 0.0000 -0.0000 1.0449 56.5445 0.2958 -0.0000 0.0000 0.0000 10.5103 51.6277 -15.8426 -77.7831 59.4285 -49.4401 0.0000 -0.0000 -17.8974 -21.4076 8.9518 -3.4910 7.1250 -0.0000 -0.0000 3.9540 -20.3875 2.3344
0.0668 18.1680 -3.8457 -3.9822 3.8351 1.5949 0.0000 0.0000 0.0000 -18.2213 -13.7004 -8.3780 2.6662 10.1340 29.4119 1.0024 1.7431 -19.6180 0.1493 2.4898 6.8613 0.0000 0.0000 0.0000 28.4897 11.2133 -10.2757 -3.1258 -10.8959 31.9297 -0.9233 -6.6304 -21.7179 -2.1767 -9.2249 26.5013 2.4404 -0.6637 0.8173 3.5751 -0.6704 -3.8417 2.3604 -0.3483 -4.4110 -4.0938 -2.7149 -10.5165 -3.0959 -2.3002 21.0731 -0.5841 -1.7205 8.3015 0.0000 0.0000 0.0000 -32.1432 -45.5619 -1.0908 84.3059 -59.8771 -55.0708 -0.0000 -0.0000 7.6431 29.5647 22.8683 12.4319 -7.1250 0.0000 -0.0000 0.5788 55.8476 0.1540 0.0000 0.0000 0.0000 14.5331 50.8260 -12.3725 -80.8377 59.6804 -52.0738 0.0000 -0.0000 -16.7162 -21.2157 9.9255 -3.8280 7.1250 -0.0000 -0.0000 4.1098 -19.3631 2.5212
0.0670 18.1687 -3.8466 -3.9501 3.9036 1.5737 0.0000 0.0000 0.0000 -18.2703 -13.6859 -8.3309 2.6602 10.1235 29.3775 1.0017 1.7653 -19.6218 0.1277 2.3033 6.3447 0.0000 0.0000 0.0000 28.4554 11.1453 -10.2720 -3.1275 -10.8987 31.9389 -0.9226 -6.6710 -21.7407 -2.1522 -9.1761 26.3477 2.3863 -0.6993 0.8087 3.5806 -0.7229 -3.7766 2.3973 -0.3723 -4.3361 -3.9679 -2.6832 -10.7387 -3.1342 -2.2599 21.0626 -0.6170 -1.6964 8.3355 -0.0000 0.0000 0.0000 -36.0010 -43.9276 2.1760 86.5808 -59.9558 -57.0394 -0.0000 -0.0000 8.8728 29.7067 22.2923 12.2119 -7.1250 0.0000 -0.0000 0.8707 55.2453 0.2190 -0.0000 0.0000 0.0000 18.3033 49.6720 -9.0231 -83.7152 59.8502 -54.5599 0.0000 -0.0000 -15.4574 -21.2737 10.5643 -4.0831 7.1250 -0.0000 -0.0000 4.0836 -18.6785 2.5672
0.0653 18.1667 -3.8523 -3.9445 3.9392 1.6023 0.0000 0.0000 0.0000 -18.2620 -13.6447 -8.3980 2.6598 10.1228 29.3755 1.0000 1.7496 -19.5987 0.1111 2.1491 5.9179 0.0000 0.0000 0.0000 28.4411 11.1358 -10.3242 -3.1253 -10.8951 31.9269 -0.9281 -6.6064 -21.7442 -2.1831 -9.2375 26.5410 2.3205 -0.7194 0.8413 3.6051 -0.7489 -3.7882 2.4617 -0.3825 -4.3648 -3.8515 -2.6221 -10.9649 -3.0955 -2.1928 21.0944 -0.6203 -1.6536 8.3854 0.0000 -0.0000 0.0000 -39.8544 -41.9979 5.4663 88.5250 -59.9918 -58.7227 -0.0000 -0.0000 9.7437 30.0740 21.8388 12.1565 -7.1250 0.0000 -0.0000 1.3694 54.8234 0.3305 0.0000 -0.0000 0.0000 22.0902 48.3068 -5.6172 -86.4177 59.9515 -56.8981 0.0000 -0.0000 -14.2383 -21.3811 10.8890 -4.2299 7.1250 -0.0000 -0.0000 4.0166 -18.3239 2.5564
0.0628 18.1657 -3.8591 -3.9786 3.9585 1.6054 0.0000 0.0000 0.0000 -18.1997 -13.6471 -8.4482 2.6633 10.1290 29.3953 1.0028 1.6907 -19.5989 0.1157 2.1935 6.0406 0.0000 0.0000 0.0000 28.4900 11.1940 -10.3042 -3.1200 -10.8868 31.8991 -0.9287 -6.6226 -21.7612 -2.2070 -9.2846 26.6895 2.2899 -0.7587 0.9216 3.6570 -0.8002 -3.7090 2.5351 -0.4060 -4.3255 -3.8824 -2.6011 -11.2790 -2.9624 -2.1723 20.9862 -0.5720 -1.6328 8.4080 -0.0000 0.0000 0.0000 -43.4417 -39.9463 8.2659 90.1378 -59.9999 -60.1193 -0.0000 -0.0000 10.5165 29.8786 21.6310 11.9578 -7.1250 0.0000 -0.0000 1.2025 54.5524 0.2822 -0.0000 0.0000 0.0000 25.6595 46.8933 -2.4854 -88.9437 59.9958 -59.0852 0.0000 -0.0000 -13.1674 -21.1658 11.0343 -4.2382 7.1250 -0.0000 -0.0000 4.1723 -18.1873 2.6687
0.0611 18.1667 -3.8617 -4.0897 3.9427 1.6153 0.0000 0.0000 0.0000 -18.0616 -13.6906 -8.4826 2.6673 10.1360 29.4182 1.0054 1.6969 -19.6257 0.1285 2.3110 6.3659 0.0000 0.0000 0.0000 28.6292 11.2854 -10.2588 -3.1109 -10.8724 31.8509 -0.9221 -6.7346 -21.7810 -2.2140 -9.2983 26.7329 2.3800 -0.7375 0.9140 3.6901 -0.7819 -3.4035 2.5116 -0.3991 -4.0042 -3.8811 -2.6784 -12.2027 -2.8468 -2.2536 20.9897 -0.5568 -1.6643 8.5801 0.0000 -0.0000 0.0000 -46.5719 -38.5075 10.4747 90.8971 -59.9970 -60.7769 -0.0000 -0.0000 11.0843 29.2596 21.5553 11.6310 -7.1250 0.0000 -0.0000 0.5543 54.3396 0.1272 0.0000 -0.0000 0.0000 28.7253 45.4955 -0.1326 -91.1139 59.9953 -60.9646 0.0000 -0.0000 -12.2596 -21.4314 11.2226 -4.3686 7.1250 -0.0000 -0.0000 3.9910 -17.9645 2.5717
